<svg width="23" height="27" fill="none" xmlns="http://www.w3.org/2000/svg"><path d="M4.594 7.444a3.588 3.588 0 01.773-1.817L4.33 4.547 1.135 6.394c-.37.215-.703.612-.912 1.05h4.371z" fill="#262262"/><path d="M11.451 19.452l-2.576-7.97a3.515 3.515 0 01-.668.062 3.53 3.53 0 01-1.246-.223L4.448 16.18c.355.327.585.8.585 1.323 0 .07-.007.139-.014.208l5.813 2.325c.16-.23.375-.431.62-.584z" fill="#1C75BC"/><path d="M3.244 15.72c.132 0 .258.014.383.042l2.513-4.859A3.627 3.627 0 014.6 8.37H.007v3.424l2.673 4.017c.174-.056.362-.09.564-.09z" fill="#2B3990"/><path d="M12.51 19.16c.152 0 .306.02.452.048l3.097-6.439a2.634 2.634 0 01-1.086-2.43l-3.425-.988a3.638 3.638 0 01-1.788 1.845l2.575 7.97c.056 0 .118-.007.174-.007z" fill="#1C75BC"/><path d="M19.122 12.79a2.29 2.29 0 01-.48.264l.689 2.98a1.48 1.48 0 011.343 1.469c0 .236-.055.466-.16.668l1.998 1.998c.237-.383.39-.822.39-1.212v-2.38l-3.78-3.787zm-8.666 8.423c0-.105.007-.21.02-.314l-5.805-2.325a1.86 1.86 0 01-.501.46l1.28 4.392 2.66 1.532 2.659-2.66a2.063 2.063 0 01-.313-1.085zm7.97-4.97l-.689-2.98h-.132a2.67 2.67 0 01-.71-.097l-3.098 6.439c.083.07.167.146.237.223l3.71-2.054a1.785 1.785 0 01-.028-.278c0-.522.285-.996.71-1.253z" fill="#2EA8E0"/><path d="M22.164 6.72l-2.388 2.387c.3.432.48.954.48 1.518 0 .564-.173 1.086-.48 1.518l3.126 3.125V8.383c0-.563-.306-1.225-.738-1.663z" fill="#1C75BC"/><path d="M13.595 22.953a2.06 2.06 0 01-1.086.313 2 2 0 01-1.086-.313l-2.485 2.485 1.364.787c.634.362 1.664.362 2.29 0l2.709-1.566-1.706-1.706z" fill="#5DCBEC"/><path d="M3.279 19.292h-.035A1.789 1.789 0 011.9 16.319L0 13.465v5.486c0 .73.515 1.621 1.149 1.983l3.146 1.817-1.016-3.46z" fill="#1C75BC"/><path d="M19.86 18.825c-.201.098-.424.16-.668.16-.39 0-.738-.146-1.002-.39l-3.71 2.054c.048.181.076.369.076.564 0 .397-.111.772-.313 1.086l1.886 1.886 5.618-3.244c.042-.027.09-.055.132-.083l-2.019-2.033z" fill="#5DCBEC"/><path d="M11.848 7.91c0 .188-.014.376-.042.557l3.425.988a2.648 2.648 0 011.684-1.385l-.424-4.713-3.613-2.088-2.374 3.815a3.63 3.63 0 011.344 2.826z" fill="#2B3990"/><path d="M6.042 4.986a3.655 3.655 0 013.682-.39L12.023.894c-.578-.125-1.253-.055-1.713.216L5.172 4.074l.87.912z" fill="#262262"/><path d="M21.392 6.184l-3.92-2.263.362 4.066c.474.041.92.209 1.288.466l2.27-2.27z" fill="#2B3990"/><path d="M5.019 17.718l5.813 2.325c.167-.236.375-.438.626-.584l-2.283-7.066a22.558 22.558 0 00-4.595 3.933 1.786 1.786 0 01.439 1.392z" fill="url(#paint0_linear)"/><path d="M12.51 19.16c.153 0 .306.02.452.048l3.098-6.439a2.634 2.634 0 01-1.086-2.43l-1.03-.299a22.787 22.787 0 00-3.961 1.838l2.352 7.281c.056.007.119 0 .174 0z" fill="url(#paint1_linear)"/><path d="M18.642 13.061l.689 2.98a1.48 1.48 0 011.343 1.468c0 .237-.055.467-.16.669l1.998 1.998c.237-.383.39-.822.39-1.212v-2.38l-3.78-3.78c-.146.09-.306.18-.48.257z" fill="url(#paint2_linear)"/><path d="M10.456 21.213c0-.104.007-.209.02-.313l-5.805-2.325c-.14.18-.306.34-.501.46l1.28 4.392 2.66 1.531 2.659-2.66a2.062 2.062 0 01-.313-1.085z" fill="url(#paint3_linear)"/><path d="M14.034 19.841l3.71-2.053a1.788 1.788 0 01-.028-.279c0-.535.285-1.002.71-1.266l-.689-2.98h-.132a2.67 2.67 0 01-.71-.097l-3.098 6.439c.083.076.16.153.237.236z" fill="url(#paint4_linear)"/><path d="M20.257 10.625a2.61 2.61 0 01-.48 1.518l3.125 3.125V8.843a21.75 21.75 0 00-2.84-.007l-.279.278c.293.425.474.947.474 1.511z" fill="url(#paint5_linear)"/><path d="M12.51 23.267a2 2 0 01-1.087-.314l-2.485 2.485 1.364.787c.634.362 1.664.362 2.29 0l2.709-1.566-1.713-1.713a1.91 1.91 0 01-1.079.32z" fill="url(#paint6_linear)"/><path d="M3.279 19.292h-.035c-.286 0-.557-.07-.794-.188-.403.626-.78 1.274-1.12 1.935l2.958 1.712-1.01-3.46z" fill="url(#paint7_linear)"/><path d="M19.199 18.985c-.39 0-.738-.146-1.003-.39l-3.71 2.054c.049.181.077.369.077.564 0 .397-.112.772-.314 1.086l1.887 1.886 5.618-3.244c.041-.027.09-.055.132-.083l-2.026-2.026a1.512 1.512 0 01-.661.153z" fill="url(#paint8_linear)"/><defs><linearGradient id="paint0_linear" x1="6.568" y1="14.089" x2="9.461" y2="19.393" gradientUnits="userSpaceOnUse"><stop stop-color="#fff" stop-opacity=".4"/><stop offset="1" stop-color="#fff" stop-opacity="0"/></linearGradient><linearGradient id="paint1_linear" x1="11.75" y1="11.263" x2="14.643" y2="16.567" gradientUnits="userSpaceOnUse"><stop stop-color="#fff" stop-opacity=".4"/><stop offset="1" stop-color="#fff" stop-opacity="0"/></linearGradient><linearGradient id="paint2_linear" x1="16.85" y1="8.481" x2="19.743" y2="13.785" gradientUnits="userSpaceOnUse"><stop stop-color="#fff" stop-opacity=".4"/><stop offset="1" stop-color="#fff" stop-opacity="0"/></linearGradient><linearGradient id="paint3_linear" x1="4.251" y1="15.353" x2="7.144" y2="20.657" gradientUnits="userSpaceOnUse"><stop stop-color="#fff" stop-opacity=".4"/><stop offset="1" stop-color="#fff" stop-opacity="0"/></linearGradient><linearGradient id="paint4_linear" x1="12.67" y1="10.761" x2="15.564" y2="16.065" gradientUnits="userSpaceOnUse"><stop stop-color="#fff" stop-opacity=".4"/><stop offset="1" stop-color="#fff" stop-opacity="0"/></linearGradient><linearGradient id="paint5_linear" x1="19.467" y1="7.053" x2="22.36" y2="12.357" gradientUnits="userSpaceOnUse"><stop stop-color="#fff" stop-opacity=".4"/><stop offset="1" stop-color="#fff" stop-opacity="0"/></linearGradient><linearGradient id="paint6_linear" x1="6.24" y1="14.268" x2="9.133" y2="19.572" gradientUnits="userSpaceOnUse"><stop stop-color="#fff" stop-opacity=".4"/><stop offset="1" stop-color="#fff" stop-opacity="0"/></linearGradient><linearGradient id="paint7_linear" x1=".726" y1="17.276" x2="3.619" y2="22.58" gradientUnits="userSpaceOnUse"><stop stop-color="#fff" stop-opacity=".4"/><stop offset="1" stop-color="#fff" stop-opacity="0"/></linearGradient><linearGradient id="paint8_linear" x1="12.285" y1="10.971" x2="15.178" y2="16.275" gradientUnits="userSpaceOnUse"><stop stop-color="#fff" stop-opacity=".4"/><stop offset="1" stop-color="#fff" stop-opacity="0"/></linearGradient></defs></svg>