<svg width="68" height="64" fill="none" xmlns="http://www.w3.org/2000/svg"><path d="M67.204 59.16l-5.144-3.086-1.768-16.792a6.744 6.744 0 00-5.248-5.883l-15.419-3.427v-4.256l.727-.727a5.199 5.199 0 000-7.353l-2.72-2.72a5.614 5.614 0 001.993-4.291v-4.5a5.622 5.622 0 00-10.048-3.47l-1.248-.623A3.855 3.855 0 0022.75 5.48v2.622a10.33 10.33 0 01-3.046 7.352 1.124 1.124 0 00.796 1.921h3.375a6.75 6.75 0 005.75-3.22c.293.362.628.687 1 .966a5.5 5.5 0 00-1.105 1.103L25.788 21.2a9.563 9.563 0 000 11.475l.337.45v4.317L21.939 50H1.375A1.125 1.125 0 00.25 51.125v11.25A1.125 1.125 0 001.375 63.5h2.25a1.125 1.125 0 00.965-.546l3.006-5.01 17.01 1.79a6.751 6.751 0 006.567-3.364l6.855-11.995h13.05l3.172 15.861v2.139a1.125 1.125 0 001.125 1.125h11.25a1.125 1.125 0 001.125-1.125v-2.25a1.125 1.125 0 00-.546-.965zM39.625 21.313a2.932 2.932 0 01-.864 2.085l-1.056 1.056c-.212.212-.33.498-.33.796v4.5h-3.242l-1.074-2.147 4.597-6.435a4.504 4.504 0 00.824-2.222l.281.281a2.93 2.93 0 01.864 2.085zM34 2.75A3.38 3.38 0 0137.181 5H34c-.298 0-.584.119-.795.33l-1.921 1.92h-.659V6.125A3.379 3.379 0 0134 2.75zM23.875 15.125h-1A12.56 12.56 0 0025 8.102V5.48a1.606 1.606 0 012.323-1.436l1.245.623a5.61 5.61 0 00-.193 1.458v4.5a4.505 4.505 0 01-4.5 4.5zm6.75-5.625h1.125c.298 0 .584-.119.795-.33l1.921-1.92h2.909v3.375a3.375 3.375 0 01-6.75 0V9.5zm-3.037 13.05l3.732-4.976a3.326 3.326 0 012.647-1.324 2.283 2.283 0 011.858 3.61l-4.99 6.986a1.125 1.125 0 00-.091 1.157l3.375 6.75c.133.267.367.47.65.564l3.123 1.041.364.364-.451.903h-5.492l-4.725-6.3a7.312 7.312 0 010-8.775zm3.262 16.875a1.125 1.125 0 00.9.45h6.75a1.125 1.125 0 001.006-.622l1.125-2.25a1.125 1.125 0 00-.21-1.298l-1.125-1.125a1.127 1.127 0 00-.44-.272l-2.933-.978-.665-1.33h3.118l7.999 1.778v8.347h-13.5a4.505 4.505 0 01-4.5-4.5v-1.5l2.475 3.3zM2.988 61.25H2.5v-9h2.453l.859 4.294-2.824 4.706zm26.232-5.996a4.501 4.501 0 01-4.378 2.243L7.94 55.717l-.694-3.467H22.75a1.125 1.125 0 001.067-.77l1.037-3.108 6.454 3.227-2.088 3.655zm3.206-5.611l-6.854-3.427 1.641-4.923a6.749 6.749 0 005.662 3.082h2.561l-3.01 5.268zm20.677-6.614A1.124 1.124 0 0052 42.125h-3.375v-7.847l5.93 1.317a4.496 4.496 0 013.5 3.922l1.751 16.637-3.64 2.185-3.063-15.31zM65.5 61.25h-9v-.488l4.5-2.7 4.5 2.7v.488z" fill="#FF2625"/></svg>