<svg width="26" height="22" fill="none" xmlns="http://www.w3.org/2000/svg"><path d="M.833 19.66l.407 1.218a.406.406 0 00.385.278h1.219a.406.406 0 00.385-.277l.314-.942h.633l.314.941a.406.406 0 00.385.278h1.219a.406.406 0 00.385-.277l.406-1.22a.405.405 0 00.021-.128v-1.625A.406.406 0 006.5 17.5H5.281v-1.219h1.625a.407.407 0 00.407-.406v-2.031a.406.406 0 00-.407-.406H5.688v-.407a.406.406 0 00-.12-.287l-.676-.676.35-3.505h1.413l2.325 4.65c.301.605.785 1.1 1.382 1.416l12.197 6.48a.406.406 0 00.546-.162l2.031-3.656a.405.405 0 00-.173-.56l-.813-.407a.407.407 0 00-.39.015l-1.794 1.076-8.623-6.664-1.857-5.198c.194-.317.296-.681.295-1.053V2.469a1.625 1.625 0 00-2.6-1.3l-1.3.975a.406.406 0 00-.162.325V4.5c0 .28.058.556.17.813H5.28a3.254 3.254 0 00-3.25 3.25v4.468c0 .108.043.211.12.287l.118.12H1.22a.406.406 0 00-.407.406v2.031a.406.406 0 00.407.406h1.625V17.5H1.219a.406.406 0 00-.407.406v1.625c0 .044.008.087.022.129zm1.718.684h-.633l-.136-.407h.904l-.135.407zm2.617 0l-.136-.407h.904l-.135.407h-.633zM6.5 7.75V6.125h2.031v-.001a2.026 2.026 0 002.324.079l1.33 3.722-3.224 1.432-1.397-2.794h1.78V7.75H6.5zm4.469-3.25a1.22 1.22 0 01-2.438 0v-.406h.406a.406.406 0 00.288-.12l.693-.693h1.05V4.5zM21.26 19.499l-7.237-3.845 1.412-2.259 6.062 4.684-.237 1.42zm2.726-2.348l.234.116-1.631 2.937-.572-.303.29-1.743 1.68-1.007zm-9.197-4.255l-1.485 2.376-2.56-1.36a2.425 2.425 0 01-1.037-1.063l-.382-.764 3.134-1.393.158.445a.406.406 0 00.135.184l2.037 1.575zM9.67 1.819a.813.813 0 011.3.65H9.75a.406.406 0 00-.287.119l-.694.693h-.238v-.61L9.67 1.82zM2.844 12.863v-4.3A2.44 2.44 0 015.28 6.124h.407V7.75h-.813a.406.406 0 00-.404.366l-.406 4.062a.406.406 0 00.116.328l.694.694v.238H3.418l-.574-.575zM1.625 14.25H6.5v1.219H1.625V14.25zm2.031 2.031h.813V17.5h-.813v-1.219zm-2.031 2.032h4.469v.812H1.625v-.813z" fill="#FF2625" fill-opacity=".5"/></svg>