<svg width="48" height="48" fill="none" xmlns="http://www.w3.org/2000/svg"><path d="M38.186 15.724a.795.795 0 001.128 0l5.559-5.559a4.09 4.09 0 000-5.777 4.09 4.09 0 00-5.777 0l-.346.345-.345-.345a4.09 4.09 0 00-5.777 0 4.058 4.058 0 00-1.197 2.889c0 1.09.425 2.117 1.197 2.888l5.558 5.559zm-4.43-10.207a2.48 2.48 0 011.76-.728c.637 0 1.275.242 1.76.728l.91.91a.799.799 0 001.128 0l.91-.91a2.491 2.491 0 013.52 0c.97.97.97 2.55 0 3.52l-4.994 4.994-4.994-4.994a2.474 2.474 0 01-.73-1.76c.001-.665.26-1.29.73-1.76z" fill="#FF2625"/><path d="M46.233 46.28c-6.82.756-12.229-2.263-12.283-2.294a.795.795 0 00-.605-.077c-.086.023-8.664 2.323-15.574.79-4.307-.958-8.37-3.992-11.336-6.208-.399-.297-.776-.58-1.13-.838-.485-.354-1.255-.649-1.933-.909-.305-.116-.723-.276-.812-.332a.312.312 0 01-.12-.253V34.31c.038-1.463 6.173-23.98 7.125-26.845a.617.617 0 01.182-.132L21.89 1.787l3.926 5.11a.704.704 0 01-.043.88l-3.879 4.348c-.254.285-.681.316-.946.095l-1.569-1.446a.804.804 0 00-.69-.18.837.837 0 00-.579.441c-.131.258-1.319.575-2.53.584l-.395-.04a.798.798 0 00-.712 1.282c.337.435.6.785.748.986l.777 13.197c-.482 1.874-.922 2.406-1.032 2.513a.799.799 0 00.24 1.559c.905 0 1.674-1.19 2.291-3.51 6.346-4.749 11.885-.268 12.319.101 2.015 2.023 2.14 3.367 2.144 3.426a.798.798 0 001.596-.017c0-.184-.066-1.758-2.131-4.032 1.947-2.395 4.165-3.774 6.607-4.074 4.21-.519 7.75 2.313 7.785 2.341a.798.798 0 001.01-1.236c-.165-.134-4.083-3.286-8.974-2.69-2.859.346-5.425 1.892-7.638 4.598-1.795-1.22-6.943-3.984-12.7-.37L16.8 13.517a.793.793 0 00-.116-.37c.714-.085 1.564-.271 2.181-.677l1.028.947a2.287 2.287 0 003.191-.229l3.88-4.349a2.313 2.313 0 00.129-2.898L22.767.311a.798.798 0 00-.964-.239L9.094 5.877c-.133.059-.807.385-1.029 1.051C7.613 8.285.844 32.426.844 34.308v1.852c0 .594.267 1.144.732 1.508.232.182.58.32 1.225.567.528.202 1.25.477 1.561.706.351.256.724.535 1.118.83 3.082 2.301 7.303 5.453 11.946 6.485 6.608 1.469 14.365-.307 16.028-.726 1.11.574 5.184 2.47 10.517 2.47.787 0 1.602-.041 2.438-.134a.798.798 0 10-.176-1.586z" fill="#3A1212"/><path d="M42.325 36.612a.798.798 0 00-1.591.088c0 .533.393 2.337 5.454 3.18a.798.798 0 00.262-1.574c-3.539-.59-4.078-1.588-4.125-1.694zm-15.319 4.095c-10.45 2.239-14.922-4.911-15.107-5.216a.798.798 0 00-1.367.822c.053.088 1.322 2.172 4.037 3.947 1.87 1.223 4.723 2.47 8.581 2.47a19.98 19.98 0 004.19-.462.798.798 0 00-.334-1.56z" fill="#FF2625"/></svg>