<svg width="63" height="63" fill="none" xmlns="http://www.w3.org/2000/svg"><path d="M62.95 50.697l-1.136-4.343a2.37 2.37 0 00-2.013-1.762l-4.05-.498a.429.429 0 01-.262-.135l-6.161-6.684a.667.667 0 01-.17-.353l-1.269-8.228a.916.916 0 10-1.81.28l1.268 8.227c.076.494.296.949.634 1.316l6.16 6.684c.363.393.855.646 1.386.711l4.05.499a.547.547 0 01.465.406l.98 3.746-5.863-2.448a6.833 6.833 0 01-1.212-.657l-8.776-5.982a1.285 1.285 0 01-.509-.699L41.43 29.754a7.866 7.866 0 00.449-2.617s-.002-6.652-.005-6.708c.34.149.665.332.966.55l.504.366a5.236 5.236 0 012.086 3.418c.169 1.18 2.009.89 1.81-.28a7.08 7.08 0 00-2.82-4.621l-.504-.366a7.055 7.055 0 00-3.039-1.252 3.264 3.264 0 00-2.274-.921h-2.484v-1.94a6.4 6.4 0 001.059-1.604c.832-.26 1.598-.937 2.088-1.873.383-.733.544-1.54.454-2.27-.104-.844-.54-1.525-1.199-1.869a2.095 2.095 0 00-.76-.227V4.912A4.368 4.368 0 0033.397.55h-3.746a4.368 4.368 0 00-4.362 4.363v2.622a2.1 2.1 0 00-.809.232c-.658.344-1.095 1.025-1.199 1.869-.09.73.072 1.537.455 2.27.494.946 1.293 1.636 2.142 1.886a6.41 6.41 0 001.005 1.537v1.994h-2.485c-.883 0-1.684.351-2.274.921a7.056 7.056 0 00-3.038 1.252l-.504.366a7.08 7.08 0 00-2.822 4.621l-1.918 12.44a.67.67 0 01-.17.352l-6.16 6.685a.428.428 0 01-.263.134l-4.05.498a2.37 2.37 0 00-2.013 1.762L.051 50.697a1.515 1.515 0 00.34 1.405 5.41 5.41 0 00-.351 1.914 5.423 5.423 0 005.417 5.417h6.283c-.23.5-.294 1.072-.163 1.621.232 1.09 1.532 1.72 2.53 1.224l3.511-1.637a7.262 7.262 0 012.472-.658l6.529-.55h30.925a5.423 5.423 0 005.417-5.417c0-.657-.122-1.304-.353-1.913.343-.38.474-.902.342-1.406zM44.139 42.99l2.971 2.025a38.083 38.083 0 00-5.204-.359l-.038.002-.339-.56a13.11 13.11 0 01-1.894-6.788v-1.975c0-1.069.21-2.124.61-3.108l2.66 9.066c.202.69.64 1.292 1.234 1.697zM28.714 17.1a4.377 4.377 0 005.572.04v1.571c0 .735-.598 1.333-1.333 1.333h-2.906a1.335 1.335 0 01-1.332-1.333V17.1zm.937-14.719h3.746a2.534 2.534 0 012.53 2.531v.039h-8.806v-.039a2.534 2.534 0 012.53-2.53zm-4.291 8.676c-.21-.4-.305-.837-.26-1.197.024-.487.38-.598.705-.407a.916.916 0 001.316-.824V6.783h8.807v1.823a.916.916 0 001.295.834c.313-.177.655-.05.678.42.044.36-.05.796-.26 1.197-.33.634-.844.986-1.18 1.007a.916.916 0 00-.805.602 4.546 4.546 0 01-1.125 1.726l-1.237 1.183a2.557 2.557 0 01-3.54 0l-1.236-1.183a4.546 4.546 0 01-1.125-1.726.916.916 0 00-.836-.603c-.339-.01-.859-.358-1.197-1.006zm-.962 8.098h2.516a3.17 3.17 0 003.133 2.721h2.906a3.17 3.17 0 003.133-2.721h2.516c.796 0 1.443.647 1.443 1.443v6.54c0 1.079-.29 2.14-.84 3.07a10.081 10.081 0 00-1.402 5.127v1.975c0 2.728.747 5.403 2.159 7.736l.34.561-1.202.172a53.55 53.55 0 01-15.2 0l-1.2-.172.339-.56a14.94 14.94 0 002.158-7.737v-1.975a10.08 10.08 0 00-1.402-5.128 6.028 6.028 0 01-.84-3.07v-6.539c0-.796.647-1.443 1.443-1.443zm-2.927 24.943l-.339.56-.037-.002c-1.743 0-3.484.123-5.208.361l2.975-2.028a3.121 3.121 0 001.234-1.696l2.66-9.066c.4.983.61 2.039.61 3.108v1.975c0 2.393-.656 4.74-1.895 6.788zM2.96 46.818a.546.546 0 01.464-.407l4.05-.498A2.261 2.261 0 008.86 45.2l6.16-6.684a2.49 2.49 0 00.634-1.315l1.918-12.44a5.236 5.236 0 012.087-3.417l.504-.366c.3-.218.626-.401.965-.55-.002.056-.004 6.709-.004 6.709 0 .894.154 1.779.449 2.616l-3.234 11.023a1.286 1.286 0 01-.508.699l-8.777 5.982a6.79 6.79 0 01-1.212.657L1.98 50.563l.98-3.746zm-1.087 7.198c0-.549.127-1.086.367-1.576l5.604-2.34 3.095-.168a27.46 27.46 0 017.555.64c.154.028.993.246 1.133.234a.916.916 0 00.201-1.81l-.928-.21a29.293 29.293 0 00-7.504-.707l.647-.441a36.256 36.256 0 018.744-1.147l.007.018c.215.454.64.768 1.137.839l1.71.245a55.407 55.407 0 0015.72 0l1.71-.245a1.488 1.488 0 001.137-.838l.007-.02a36.27 36.27 0 018.744 1.148l.647.44c-2.52-.087-5.042.15-7.503.708L31.5 51.644l-4.242-.962a3.374 3.374 0 00-4.12.645l-1.62 1.748c-.168.18-.378.319-.61.402l-3.916 1.404a5.994 5.994 0 00-2.138 1.324L13.397 57.6h-7.94a3.589 3.589 0 01-3.585-3.585zm18.065 4.142a9.09 9.09 0 00-3.093.822l-3.49 1.627a.668.668 0 01.192-.612l2.575-2.468c.43-.41.93-.721 1.49-.922l3.915-1.403a3.385 3.385 0 001.335-.882l1.62-1.747c.525-.572 1.394-.643 2.024-.21l1.45.907c.43.268.894.481 1.378.633l.062.02v3.437l-9.458.797zm37.606-.557H31.228v-4.016l13.28-3.012a27.452 27.452 0 017.555-.64s3.04.16 3.075.159l5.625 2.349c.24.49.367 1.027.367 1.575a3.589 3.589 0 01-3.585 3.585z" fill="#FF2625"/></svg>