<svg width="57" height="63" fill="none" xmlns="http://www.w3.org/2000/svg"><path d="M5.469.094H1.28A1.047 1.047 0 00.234 1.14v7.328a1.047 1.047 0 001.047 1.047H5.47a1.047 1.047 0 001.047-1.047V7.422h1.05c-.001.133.023.265.071.389l3.68 9.198a5.2 5.2 0 002.085 2.495l6.723 4.201v5.621l-4.1 26.654-4.814 2.888a1.048 1.048 0 00-.508.898v2.093a1.047 1.047 0 001.047 1.047h9.422a1.046 1.046 0 001.047-1.047v-1.93l6.28-19.743 6.281 19.741v1.931a1.047 1.047 0 001.047 1.047h9.422a1.046 1.046 0 001.047-1.047v-2.093a1.047 1.047 0 00-.508-.898l-4.813-2.888-4.101-26.654v-5.62l6.723-4.202a5.2 5.2 0 002.085-2.495l3.68-9.198c.048-.124.072-.256.071-.39h1.05v1.05a1.047 1.047 0 001.047 1.047h4.188a1.047 1.047 0 001.047-1.047V1.14A1.047 1.047 0 0055.719.094H51.53a1.047 1.047 0 00-1.047 1.047v1.046h-9.422V1.141A1.047 1.047 0 0040.017.094h-4.188a1.047 1.047 0 00-1.047 1.047v7.328a1.047 1.047 0 001.047 1.047h4.188a1.047 1.047 0 001.047-1.047V7.422h1.046v.757l-2.768 4.614-6.654 1.663V9.833a3.458 3.458 0 00-5.375-2.877L24.78 8.645a1.047 1.047 0 00-.466.87v4.941l-6.654-1.663-2.768-4.614v-.757h1.046v1.047a1.047 1.047 0 001.047 1.047h4.188a1.047 1.047 0 001.047-1.047V1.14A1.047 1.047 0 0021.172.094h-4.188a1.047 1.047 0 00-1.047 1.047v1.046h-9.42V1.141A1.047 1.047 0 005.469.094zM4.422 7.422H2.328V2.188h2.094v5.234zm48.156-5.234h2.094v5.234h-2.094V2.188zm-13.61 5.234h-2.093V2.188h2.094v5.234zM18.032 2.188h2.094v5.234h-2.094V2.188zm-5.234 58.624v-.454l4.122-2.473 3.206 2.404v.523h-7.328zm7.824-2.768l-2.506-1.88 2.167-14.086 4.9 1.633-4.56 14.333zM28.5 35.688a1.047 1.047 0 00-.997.729l-1.686 5.298-5.212-1.737 1.465-9.525h12.86l1.465 9.525-5.212 1.737-1.686-5.298a1.046 1.046 0 00-.997-.73zm3.318 8.023l4.9-1.633 2.167 14.086-2.506 1.88-4.56-14.333zm12.385 16.647v.455h-7.328v-.524l3.206-2.404 4.122 2.473zm-8.93-38.12a1.046 1.046 0 00-.492.887v5.234H22.22v-5.234a1.047 1.047 0 00-.492-.888l-3.613-2.258 1.787-4.468 4.916 1.23a4.186 4.186 0 007.366 0l4.916-1.23 1.787 4.468-3.613 2.258zm-8.867-7.488v-2.094h4.188v2.094a2.093 2.093 0 11-4.188 0zm24.078-9.422h-1.538l-.261-1.047h1.8v1.047zm-9.422 0V4.281h1.047v1.047h-1.047zm-.792 9.39c.269-.067.5-.238.643-.476l3.141-5.235c.097-.162.15-.349.15-.538V4.28h2.322l.767 3.066-3.554 8.884a3.12 3.12 0 01-1.251 1.497l-1.798 1.124-1.541-3.853 1.12-.28zm-11.797-6.02a1.364 1.364 0 012.12 1.135v.73h-4.187v-.487l2.068-1.378zm-12.535-3.37H14.89V4.281h1.046v1.047zm-5.464-1.047h2.323V8.47c0 .19.051.376.149.538l3.14 5.235c.144.238.375.41.645.477l1.12.28-1.541 3.853-1.798-1.124a3.121 3.121 0 01-1.251-1.497L9.707 7.347l.767-3.066zm-2.159 0l-.261 1.047H6.516V4.281h1.8z" fill="#FF2625"/></svg>