<svg width="45" height="63" fill="none" xmlns="http://www.w3.org/2000/svg"><path d="M18.151 44.861a3.905 3.905 0 003.101 1.544c.425 0 .848-.07 1.25-.207.403.138.826.208 1.251.207a3.906 3.906 0 003.1-1.543l3.804-5.035a10.613 10.613 0 002.132-6.358 6.443 6.443 0 00-9.425-5.71v-1.101h.773a4.284 4.284 0 004.282-4.282.861.861 0 00-.862-.861h-1.634a4.274 4.274 0 00-3.47 1.783 4.467 4.467 0 00-3.566-1.78.861.861 0 000 1.722 2.756 2.756 0 012.754 2.754v1.765a6.442 6.442 0 00-9.425 5.71 10.613 10.613 0 002.131 6.358l3.804 5.034zm7.77-21.622h.623a2.56 2.56 0 01-2.407 1.696h-.624a2.559 2.559 0 012.408-1.695zm-7.263 5.51a4.697 4.697 0 013.248 1.3.875.875 0 001.188 0 4.717 4.717 0 017.973 3.42 8.88 8.88 0 01-1.784 5.32l-3.804 5.034a2.205 2.205 0 01-2.62.665.86.86 0 00-.713 0 2.204 2.204 0 01-2.62-.665l-3.803-5.035a8.88 8.88 0 01-1.785-5.32 4.725 4.725 0 014.72-4.719z" fill="#FF2625"/><path d="M41.531 4.922l-11.96.003L28.248.61a.86.86 0 00-.822-.61h-9.852a.861.861 0 00-.823.609l-1.323 4.316-11.96-.003A3.326 3.326 0 00.147 8.244v51.434A3.326 3.326 0 003.47 63h38.06a3.326 3.326 0 003.323-3.322V8.244a3.326 3.326 0 00-3.323-3.322zm-3.322 6.644v44.79H6.79v-44.79h31.42zM16.064 6.648a.861.861 0 00.825-.608l1.322-4.317h8.578l1.322 4.317a.86.86 0 00.823.608l4.064-.002v3.198H12v-3.2l4.064.004zm27.067 53.03a1.602 1.602 0 01-1.6 1.6H3.47a1.602 1.602 0 01-1.6-1.6V8.244a1.602 1.602 0 011.6-1.6h6.809v3.2H5.93a.861.861 0 00-.861.861v46.512a.861.861 0 00.861.861h33.14a.861.861 0 00.861-.861V10.705a.862.862 0 00-.861-.861h-4.348v-3.2h6.81a1.602 1.602 0 011.6 1.6v51.434z" fill="#FF2625"/><path d="M21.177 6.645h2.645a.861.861 0 000-1.723h-2.645a.861.861 0 100 1.723z" fill="#FF2625"/></svg>