<svg width="18" height="15" fill="none" xmlns="http://www.w3.org/2000/svg"><path d="M16.136 4.014a7.706 7.706 0 001.801-1.871 6.82 6.82 0 01-2.079.554 3.554 3.554 0 001.594-2.01 7.684 7.684 0 01-2.287.901A3.639 3.639 0 0012.497.445 3.638 3.638 0 008.86 4.083c0 .277.034.555.104.832a10.556 10.556 0 01-7.52-3.812A3.54 3.54 0 00.959 2.94a3.58 3.58 0 001.629 3.014c-.59-.034-1.178-.173-1.663-.45v.034a3.643 3.643 0 002.91 3.57 4.07 4.07 0 01-.935.138c-.243 0-.45-.035-.693-.07a3.62 3.62 0 003.396 2.53 7.314 7.314 0 01-4.505 1.56 6.66 6.66 0 01-.866-.07c1.594 1.04 3.5 1.629 5.579 1.629 6.687 0 10.326-5.51 10.326-10.326v-.485z" fill="#fff"/></svg>